<svg width="644" height="161" viewBox="0 0 644 161" fill="none" xmlns="http://www.w3.org/2000/svg">
<path d="M185.84 129.408C178.416 129.408 172.016 128.213 166.64 125.824C161.349 123.349 156.485 119.637 152.048 114.688L165.104 101.76C168.005 105.088 171.205 107.691 174.704 109.568C178.288 111.36 182.427 112.256 187.12 112.256C191.387 112.256 194.672 111.488 196.976 109.952C199.365 108.416 200.56 106.283 200.56 103.552C200.56 101.077 199.792 99.072 198.256 97.536C196.72 96 194.672 94.6773 192.112 93.568C189.637 92.4587 186.864 91.392 183.792 90.368C180.805 89.344 177.819 88.192 174.832 86.912C171.845 85.5467 169.072 83.8827 166.512 81.92C164.037 79.872 162.032 77.3547 160.496 74.368C158.96 71.296 158.192 67.456 158.192 62.848C158.192 57.3013 159.515 52.5227 162.16 48.512C164.891 44.5013 168.645 41.472 173.424 39.424C178.203 37.2907 183.707 36.224 189.936 36.224C196.251 36.224 202.011 37.3333 207.216 39.552C212.507 41.7707 216.859 44.8 220.272 48.64L207.216 61.568C204.485 58.752 201.712 56.6613 198.896 55.296C196.165 53.9307 193.051 53.248 189.552 53.248C186.053 53.248 183.28 53.9307 181.232 55.296C179.184 56.576 178.16 58.4533 178.16 60.928C178.16 63.232 178.928 65.1093 180.464 66.56C182 67.9253 184.005 69.12 186.48 70.144C189.04 71.168 191.813 72.192 194.8 73.216C197.872 74.24 200.901 75.4347 203.888 76.8C206.875 78.1653 209.605 79.9147 212.08 82.048C214.64 84.096 216.688 86.7413 218.224 89.984C219.76 93.1413 220.528 97.0667 220.528 101.76C220.528 110.379 217.456 117.163 211.312 122.112C205.168 126.976 196.677 129.408 185.84 129.408ZM261.882 129.408C255.141 129.408 249.125 128.043 243.834 125.312C238.629 122.496 234.533 118.613 231.546 113.664C228.559 108.715 227.066 103.125 227.066 96.896C227.066 90.6667 228.517 85.12 231.418 80.256C234.405 75.3067 238.415 71.424 243.45 68.608C248.485 65.792 254.159 64.384 260.474 64.384C266.618 64.384 272.037 65.7067 276.73 68.352C281.423 70.9973 285.093 74.6667 287.738 79.36C290.469 84.0533 291.834 89.4293 291.834 95.488C291.834 96.5973 291.749 97.792 291.578 99.072C291.493 100.267 291.279 101.675 290.938 103.296L237.306 103.424V89.984L282.618 89.856L274.17 95.488C274.085 91.904 273.53 88.96 272.506 86.656C271.482 84.2667 269.946 82.4747 267.898 81.28C265.935 80 263.503 79.36 260.602 79.36C257.53 79.36 254.842 80.0853 252.538 81.536C250.319 82.9013 248.57 84.864 247.29 87.424C246.095 89.984 245.498 93.0987 245.498 96.768C245.498 100.437 246.138 103.595 247.418 106.24C248.783 108.8 250.661 110.805 253.05 112.256C255.525 113.621 258.426 114.304 261.754 114.304C264.826 114.304 267.599 113.792 270.074 112.768C272.549 111.659 274.725 110.037 276.602 107.904L287.354 118.656C284.282 122.24 280.57 124.928 276.218 126.72C271.866 128.512 267.087 129.408 261.882 129.408ZM301.287 128V65.792H320.871V128H301.287ZM320.871 93.824L312.679 87.424C314.3 80.1707 317.031 74.5387 320.871 70.528C324.711 66.5173 330.044 64.512 336.871 64.512C339.858 64.512 342.46 64.9813 344.679 65.92C346.983 66.7733 348.988 68.1387 350.695 70.016L339.047 84.736C338.194 83.7973 337.127 83.072 335.847 82.56C334.567 82.048 333.116 81.792 331.495 81.792C328.252 81.792 325.65 82.816 323.687 84.864C321.81 86.8267 320.871 89.8133 320.871 93.824ZM384.882 129.408C378.141 129.408 372.125 128.043 366.834 125.312C361.629 122.496 357.533 118.613 354.546 113.664C351.559 108.715 350.066 103.125 350.066 96.896C350.066 90.6667 351.517 85.12 354.418 80.256C357.405 75.3067 361.415 71.424 366.45 68.608C371.485 65.792 377.159 64.384 383.474 64.384C389.618 64.384 395.037 65.7067 399.73 68.352C404.423 70.9973 408.093 74.6667 410.738 79.36C413.469 84.0533 414.834 89.4293 414.834 95.488C414.834 96.5973 414.749 97.792 414.578 99.072C414.493 100.267 414.279 101.675 413.938 103.296L360.306 103.424V89.984L405.618 89.856L397.17 95.488C397.085 91.904 396.53 88.96 395.506 86.656C394.482 84.2667 392.946 82.4747 390.898 81.28C388.935 80 386.503 79.36 383.602 79.36C380.53 79.36 377.842 80.0853 375.538 81.536C373.319 82.9013 371.57 84.864 370.29 87.424C369.095 89.984 368.498 93.0987 368.498 96.768C368.498 100.437 369.138 103.595 370.418 106.24C371.783 108.8 373.661 110.805 376.05 112.256C378.525 113.621 381.426 114.304 384.754 114.304C387.826 114.304 390.599 113.792 393.074 112.768C395.549 111.659 397.725 110.037 399.602 107.904L410.354 118.656C407.282 122.24 403.57 124.928 399.218 126.72C394.866 128.512 390.087 129.408 384.882 129.408ZM465.375 128V92.544C465.375 89.3013 464.351 86.6987 462.303 84.736C460.34 82.688 457.823 81.664 454.751 81.664C452.618 81.664 450.74 82.1333 449.119 83.072C447.498 83.9253 446.218 85.2053 445.279 86.912C444.34 88.5333 443.871 90.4107 443.871 92.544L436.319 88.832C436.319 83.968 437.386 79.7013 439.519 76.032C441.652 72.3627 444.596 69.5467 448.351 67.584C452.191 65.536 456.5 64.512 461.279 64.512C465.887 64.512 469.94 65.6213 473.439 67.84C477.023 69.9733 479.839 72.832 481.887 76.416C483.935 80 484.959 83.9253 484.959 88.192V128H465.375ZM424.287 128V65.792H443.871V128H424.287ZM497.537 128V65.792H517.121V128H497.537ZM507.393 57.216C504.321 57.216 501.761 56.192 499.713 54.144C497.75 52.0107 496.769 49.4507 496.769 46.464C496.769 43.392 497.75 40.832 499.713 38.784C501.761 36.736 504.321 35.712 507.393 35.712C510.465 35.712 512.982 36.736 514.945 38.784C516.908 40.832 517.889 43.392 517.889 46.464C517.889 49.4507 516.908 52.0107 514.945 54.144C512.982 56.192 510.465 57.216 507.393 57.216ZM539.744 128V40.064H559.328V128H539.744ZM525.664 82.432V65.792H573.408V82.432H525.664ZM601.237 128.256L575.637 65.792H596.757L613.013 115.328H605.205L621.845 65.792H642.965L616.341 128.256H601.237ZM585.237 154.24L603.925 113.92L616.341 128.256L605.333 154.24H585.237Z" fill="#141414"/>
<rect x="48.1675" y="25" width="13.6646" height="110" fill="#141414"/>
<rect y="86.8323" width="13.6646" height="110" transform="rotate(-90 0 86.8323)" fill="#141414"/>
<rect x="11.2778" y="45.9403" width="13.6646" height="110" transform="rotate(-45 11.2778 45.9403)" fill="#141414"/>
<rect x="89.0601" y="36.278" width="13.6646" height="110" transform="rotate(45 89.0601 36.278)" fill="#141414"/>
</svg>
